<svg width="24" height="24" viewBox="0 0 24 24" fill="none" xmlns="http://www.w3.org/2000/svg">
<path d="M2.53464 2.53464C1.82179 3.24749 1.82179 4.40325 2.53464 5.1161L9.41854 12L2.53464 18.8839C1.82179 19.5968 1.82179 20.7525 2.53464 21.4654C3.24749 22.1782 4.40325 22.1782 5.11611 21.4654L12 14.5815L18.8839 21.4654C19.5968 22.1782 20.7525 22.1782 21.4654 21.4654C22.1782 20.7525 22.1782 19.5968 21.4654 18.8839L14.5815 12L21.4654 5.1161C22.1782 4.40325 22.1782 3.24749 21.4654 2.53464C20.7525 1.82179 19.5968 1.82179 18.8839 2.53464L12 9.41854L5.1161 2.53464C4.40325 1.82179 3.24749 1.82179 2.53464 2.53464Z" fill="#2A5EA1"/>
</svg>
