<svg width="24" height="24" viewBox="0 0 24 24" fill="none" xmlns="http://www.w3.org/2000/svg">
<path fill-rule="evenodd" clip-rule="evenodd" d="M8.61537 5.07695V4.30769C8.61537 3.69565 8.8585 3.10868 9.29127 2.67591C9.72405 2.24313 10.311 2 10.9231 2H14C14.612 2 15.199 2.24313 15.6318 2.67591C16.0645 3.10868 16.3077 3.69565 16.3077 4.30769V5.07695H20.1538C20.3579 5.07695 20.5535 5.15799 20.6978 5.30225C20.842 5.44651 20.9231 5.64217 20.9231 5.84618C20.9231 6.05019 20.842 6.24585 20.6978 6.39011C20.5535 6.53437 20.3579 6.61541 20.1538 6.61541H4.76923C4.56522 6.61541 4.36956 6.53437 4.2253 6.39011C4.08104 6.24585 4 6.05019 4 5.84618C4 5.64217 4.08104 5.44651 4.2253 5.30225C4.36956 5.15799 4.56522 5.07695 4.76923 5.07695H8.61537ZM14.7692 5.07692H10.1538V4.30769C10.1538 4.10368 10.2349 3.90802 10.3791 3.76376C10.5234 3.61951 10.719 3.53846 10.9231 3.53846H14C14.204 3.53846 14.3997 3.61951 14.5439 3.76376C14.6882 3.90802 14.7692 4.10368 14.7692 4.30769V5.07692Z" fill="#2A5EA1"/>
<path d="M15.5385 22.0001H9.38463C8.36456 22.0001 7.38628 21.5948 6.66499 20.8735C5.94369 20.1522 5.53847 19.174 5.53847 18.1539V8.92313C5.53847 8.71912 5.61952 8.52346 5.76378 8.3792C5.90804 8.23494 6.10369 8.1539 6.30771 8.1539C6.51172 8.1539 6.70737 8.23494 6.85163 8.3792C6.99589 8.52346 7.07694 8.71912 7.07694 8.92313V18.1539C7.07694 18.7659 7.32007 19.3529 7.75284 19.7857C8.18562 20.2185 8.77259 20.4616 9.38463 20.4616H15.5385C16.1505 20.4616 16.7375 20.2185 17.1703 19.7857C17.603 19.3529 17.8462 18.7659 17.8462 18.1539V8.92313C17.8462 8.71912 17.9272 8.52346 18.0715 8.3792C18.2157 8.23494 18.4114 8.1539 18.6154 8.1539C18.8194 8.1539 19.0151 8.23494 19.1593 8.3792C19.3036 8.52346 19.3846 8.71912 19.3846 8.92313V18.1539C19.3846 19.174 18.9794 20.1522 18.2581 20.8735C17.5368 21.5948 16.5585 22.0001 15.5385 22.0001Z" fill="#2A5EA1"/>
<path d="M10.9231 17.3847C10.7191 17.3847 10.5234 17.3036 10.3791 17.1594C10.2349 17.0151 10.1538 16.8194 10.1538 16.6154V11.2308C10.1538 11.0268 10.2349 10.8311 10.3791 10.6869C10.5234 10.5426 10.7191 10.4616 10.9231 10.4616C11.1271 10.4616 11.3227 10.5426 11.467 10.6869C11.6113 10.8311 11.6923 11.0268 11.6923 11.2308V16.6154C11.6923 16.8194 11.6113 17.0151 11.467 17.1594C11.3227 17.3036 11.1271 17.3847 10.9231 17.3847Z" fill="#2A5EA1"/>
<path d="M13.4561 17.1594C13.6004 17.3036 13.796 17.3847 14 17.3847C14.204 17.3847 14.3997 17.3036 14.544 17.1594C14.6882 17.0151 14.7693 16.8194 14.7693 16.6154V11.2308C14.7693 11.0268 14.6882 10.8311 14.544 10.6869C14.3997 10.5426 14.204 10.4616 14 10.4616C13.796 10.4616 13.6004 10.5426 13.4561 10.6869C13.3118 10.8311 13.2308 11.0268 13.2308 11.2308V16.6154C13.2308 16.8194 13.3118 17.0151 13.4561 17.1594Z" fill="#2A5EA1"/>
</svg>
