<svg width="23" height="23" viewBox="0 0 23 23" fill="none" xmlns="http://www.w3.org/2000/svg">
<path d="M0.838867 11.7175C0.838867 12.546 1.51044 13.2175 2.33887 13.2175H10.3389V21.2175C10.3389 22.046 11.0104 22.7175 11.8389 22.7175C12.6673 22.7175 13.3389 22.046 13.3389 21.2175V13.2175H21.3389C22.1673 13.2175 22.8389 12.546 22.8389 11.7175C22.8389 10.8891 22.1673 10.2175 21.3389 10.2175H13.3389V2.21753C13.3389 1.3891 12.6673 0.71753 11.8389 0.717529C11.0104 0.717529 10.3389 1.3891 10.3389 2.21753V10.2175L2.33887 10.2175C1.51044 10.2175 0.838867 10.8891 0.838867 11.7175Z" fill="#86BA90"/>
</svg>
