<svg width="23" height="19" viewBox="0 0 23 19" fill="none" xmlns="http://www.w3.org/2000/svg" fill="white">
<mask id="path-1-inside-1" fill="white">
<path fill-rule="evenodd" clip-rule="evenodd" d="M15.8234 18.0599H7.8303V15.0712H4.83301V13.0787H0.836426V0.12734H22.8174V13.0787H18.8209V15.0712H15.8234V18.0599Z"/>
</mask>
<path fill-rule="evenodd" clip-rule="evenodd" d="M15.8234 18.0599H7.8303V15.0712H4.83301V13.0787H0.836426V0.12734H22.8174V13.0787H18.8209V15.0712H15.8234V18.0599Z" fill=""/>
<path d="M7.8303 18.0599V19.0599H6.8303V18.0599H7.8303ZM15.8234 18.0599H16.8234V19.0599H15.8234V18.0599ZM7.8303 15.0712V14.0712H8.8303V15.0712H7.8303ZM4.83301 15.0712V16.0712H3.83301V15.0712H4.83301ZM4.83301 13.0787V12.0787H5.83301V13.0787H4.83301ZM0.836426 13.0787V14.0787H-0.163574V13.0787H0.836426ZM0.836426 0.12734H-0.163574V-0.87266H0.836426V0.12734ZM22.8174 0.12734V-0.87266H23.8174V0.12734H22.8174ZM22.8174 13.0787H23.8174V14.0787H22.8174V13.0787ZM18.8209 13.0787H17.8209V12.0787H18.8209V13.0787ZM18.8209 15.0712H19.8209V16.0712H18.8209V15.0712ZM15.8234 15.0712H14.8234V14.0712H15.8234V15.0712ZM7.8303 17.0599H15.8234V19.0599H7.8303V17.0599ZM8.8303 15.0712V18.0599H6.8303V15.0712H8.8303ZM7.8303 16.0712H4.83301V14.0712H7.8303V16.0712ZM3.83301 15.0712V13.0787H5.83301V15.0712H3.83301ZM4.83301 14.0787H0.836426V12.0787H4.83301V14.0787ZM-0.163574 13.0787V0.12734H1.83643V13.0787H-0.163574ZM0.836426 -0.87266H22.8174V1.12734H0.836426V-0.87266ZM23.8174 0.12734V13.0787H21.8174V0.12734H23.8174ZM22.8174 14.0787H18.8209V12.0787H22.8174V14.0787ZM19.8209 13.0787V15.0712H17.8209V13.0787H19.8209ZM18.8209 16.0712H15.8234V14.0712H18.8209V16.0712ZM14.8234 18.0599V15.0712H16.8234V18.0599H14.8234Z" fill="#2A5EA1" mask="url(#path-1-inside-1)"/>
</svg>
