<svg width="16" height="28" viewBox="0 0 16 28" fill="none" xmlns="http://www.w3.org/2000/svg">
<path d="M0.433763 5.88479C1.5445 2.28447 5.64275 -0.0519125 9.31967 0.867319C13.0349 1.78655 15.6011 5.73159 14.9117 9.44682C14.3754 12.4726 11.771 14.8856 8.82175 15.4601L8.78345 19.635C8.78345 20.7074 7.94082 21.55 6.86839 21.55C5.79595 21.55 4.95332 20.7074 4.95332 19.635L4.99162 13.66C4.99162 13.0854 5.22143 12.5875 5.64274 12.2045C6.02576 11.8598 6.60028 11.6683 7.1365 11.7449C8.93666 11.9747 10.8134 10.5576 11.1198 8.79569C11.4645 7.03383 10.1623 5.00386 8.43874 4.58255C6.67688 4.16123 4.60861 5.34857 4.07239 7.03383C3.72768 8.06797 2.65524 8.60419 1.6594 8.29778C0.66357 7.99137 0.0890514 6.91893 0.433763 5.88479Z" fill="white"/>
<path d="M6.90668 23.235H6.94498C7.97912 23.235 8.78345 24.001 8.82175 25.0352V25.3416C8.78345 26.3757 7.94082 27.3333 6.90668 27.3333H6.86838C5.83425 27.295 4.99162 26.6055 4.99162 25.5714V25.1501C5.02992 24.1159 5.87255 23.235 6.90668 23.235Z" fill="white"/>
</svg>
