<svg width="189" height="266" viewBox="0 0 189 266" fill="none" xmlns="http://www.w3.org/2000/svg">
<rect y="24.454" width="171.546" height="241.546" fill="#C4C4C4"/>
<rect x="25.9316" y="45.4146" width="13.9631" height="13.9737" fill="white"/>
<rect x="11.9683" y="132.251" width="46.876" height="13.9737" fill="white"/>
<rect x="11.9683" y="151.216" width="46.876" height="13.9737" fill="white"/>
<rect x="11.9683" y="172.176" width="46.876" height="13.9737" fill="white"/>
<rect x="67.8208" y="132.251" width="46.876" height="13.9737" fill="white"/>
<rect x="126.665" y="116.281" width="40.8918" height="5.98874" fill="white"/>
<rect x="126.665" y="124.266" width="40.8918" height="5.98874" fill="white"/>
<rect x="126.665" y="132.251" width="40.8918" height="5.98874" fill="white"/>
<rect x="126.665" y="140.236" width="40.8918" height="5.98874" fill="white"/>
<rect x="126.665" y="148.221" width="40.8918" height="5.98874" fill="white"/>
<rect x="126.665" y="156.206" width="40.8918" height="5.98874" fill="white"/>
<rect x="126.665" y="164.191" width="40.8918" height="5.98874" fill="white"/>
<rect x="126.665" y="172.176" width="40.8918" height="5.98874" fill="white"/>
<rect x="126.665" y="180.161" width="40.8918" height="5.98874" fill="white"/>
<rect x="67.8208" y="151.216" width="46.876" height="13.9737" fill="white"/>
<rect x="67.8208" y="172.176" width="46.876" height="13.9737" fill="white"/>
<rect x="50.8652" y="45.4146" width="13.9631" height="13.9737" fill="white"/>
<rect x="75.7993" y="45.4146" width="13.9631" height="13.9737" fill="white"/>
<rect x="129.657" y="73.3621" width="13.9631" height="13.9737" fill="white"/>
<rect x="147.609" y="73.3621" width="13.9631" height="13.9737" fill="white"/>
<rect x="147.609" y="91.3283" width="13.9631" height="13.9737" fill="white"/>
<rect x="129.657" y="91.3283" width="13.9631" height="13.9737" fill="white"/>
<rect x="11.9683" y="73.3621" width="111.704" height="45.9137" fill="white"/>
<path d="M17.4538 0H188.501L171.546 23.4559H0L17.4538 0Z" fill="#C4C4C4"/>
<path d="M172.543 24.1785L189 0.5V242.046L172.543 266.001V24.1785Z" fill="#C4C4C4"/>
</svg>
