<svg width="24" height="24" viewBox="0 0 24 24" fill="none" xmlns="http://www.w3.org/2000/svg">
<path d="M8.42857 12C8.42857 10.0307 10.0307 8.42857 12 8.42857C13.9693 8.42857 15.5714 10.0307 15.5714 12C15.5714 12.6921 15.3729 13.3643 14.9979 13.9429C14.7829 14.275 14.3407 14.3686 14.01 14.1536C13.6786 13.9386 13.5843 13.4964 13.7993 13.1657C14.0243 12.8186 14.1429 12.4157 14.1429 12C14.1429 10.8186 13.1814 9.85714 12 9.85714C10.8186 9.85714 9.85714 10.8186 9.85714 12C9.85714 13.1814 10.8186 14.1429 12 14.1429C12.3943 14.1429 12.7143 14.4621 12.7143 14.8571C12.7143 15.2521 12.3943 15.5714 12 15.5714C10.0307 15.5714 8.42857 13.9693 8.42857 12Z" fill="#2A5EA1"/>
<path fill-rule="evenodd" clip-rule="evenodd" d="M19.6379 9.18571C20.9779 9.42071 22 10.5936 22 12C22 13.4079 20.9779 14.58 19.6386 14.8143L19.3914 15.41C19.7271 15.8871 19.9086 16.455 19.9086 17.05C19.9086 17.8136 19.6114 18.5307 19.0714 19.0707C18.075 20.0664 16.5243 20.1721 15.4107 19.39L14.8143 19.6379C14.58 20.9779 13.4079 22 12.0007 22C10.5943 22 9.42143 20.9779 9.18643 19.6379L8.59 19.3907C7.50143 20.1571 5.88929 20.0314 4.92929 19.0707C3.93429 18.0757 3.82786 16.525 4.60929 15.41L4.36214 14.8143C3.02214 14.5793 2 13.4071 2 12C2 10.5936 3.02143 9.42071 4.36214 9.18571L4.60929 8.59C4.27286 8.11286 4.09214 7.545 4.09214 6.95C4.09214 6.18643 4.38929 5.46857 4.92929 4.92929C5.92429 3.93429 7.47643 3.82857 8.58929 4.60929L9.18571 4.36214C9.42071 3.02214 10.5936 2 12 2C13.4064 2 14.5786 3.02214 14.8136 4.36214L15.41 4.60929C16.5 3.84286 18.1093 3.96786 19.0707 4.92929C20.065 5.92429 20.1721 7.475 19.39 8.58929L19.6379 9.18571ZM18.4829 13.8707C18.5936 13.6036 18.8543 13.43 19.1429 13.43C19.9307 13.43 20.5714 12.7886 20.5714 12C20.5714 11.2121 19.9307 10.5714 19.1429 10.5714C18.8543 10.5714 18.5929 10.3971 18.4829 10.1314L17.9057 8.73857C17.795 8.47143 17.8564 8.16429 18.0607 7.96C18.6171 7.40286 18.6171 6.49643 18.0607 5.93929C17.5207 5.39929 16.5807 5.39929 16.0407 5.93929C15.8364 6.14429 15.5293 6.20429 15.2621 6.09429L13.8693 5.51714C13.6029 5.40643 13.4286 5.14571 13.4286 4.85714C13.4286 4.06929 12.7879 3.42857 12 3.42857C11.2121 3.42857 10.5714 4.06929 10.5714 4.85714C10.5714 5.14571 10.3971 5.40643 10.1307 5.51714L8.73857 6.09429C8.47143 6.20357 8.16429 6.14357 7.96 5.93929C7.40286 5.38214 6.49643 5.38214 5.93929 5.93929C5.66929 6.20929 5.52071 6.56857 5.52071 6.95C5.52071 7.33143 5.66929 7.69 5.93929 7.96C6.14357 8.16429 6.205 8.47143 6.09429 8.73857L5.51714 10.1314C5.40643 10.3979 5.14571 10.5721 4.85714 10.5721C4.06929 10.5721 3.42857 11.2129 3.42857 12.0007C3.42857 12.7893 4.06929 13.43 4.85714 13.43C5.14571 13.43 5.40643 13.6036 5.51714 13.8707L6.09429 15.2621C6.205 15.5293 6.14357 15.8364 5.93929 16.0407C5.38214 16.5979 5.38214 17.5043 5.93929 18.0614C6.47929 18.6014 7.41929 18.6014 7.95929 18.0614C8.16429 17.8571 8.47 17.7957 8.73786 17.9064L10.1307 18.4836C10.3971 18.5936 10.5714 18.855 10.5714 19.1436C10.5714 19.9314 11.2121 20.5721 12 20.5721C12.7879 20.5721 13.4286 19.9314 13.4286 19.1436C13.4286 18.855 13.6021 18.5943 13.8693 18.4836L15.2614 17.9064C15.5286 17.7957 15.8357 17.8571 16.04 18.0614C16.5957 18.6171 17.5036 18.6186 18.0607 18.0614C18.3307 17.7914 18.4793 17.4329 18.4793 17.0507C18.4793 16.6693 18.3307 16.3107 18.0607 16.0407C17.8564 15.8364 17.795 15.5293 17.9057 15.2621L18.4829 13.8707Z" fill="#2A5EA1"/>
</svg>
