<svg width="578" height="134" viewBox="0 0 578 134" fill="none" xmlns="http://www.w3.org/2000/svg">
<rect y="60.5" width="536" height="73" fill="#C4C4C4"/>
<path fill-rule="evenodd" clip-rule="evenodd" d="M204 74.5H196V77.5H193V79.5H189V92.5H211V79.5H207V77.5H204V74.5Z" fill="white"/>
<path fill-rule="evenodd" clip-rule="evenodd" d="M234 74.5H226V77.5H223V79.5H219V92.5H241V79.5H237V77.5H234V74.5Z" fill="white"/>
<path fill-rule="evenodd" clip-rule="evenodd" d="M264 74.5H256V77.5H253V79.5H249V92.5H271V79.5H267V77.5H264V74.5Z" fill="white"/>
<path fill-rule="evenodd" clip-rule="evenodd" d="M294 74.5H286V77.5H283V79.5H279V92.5H301V79.5H297V77.5H294V74.5Z" fill="white"/>
<path fill-rule="evenodd" clip-rule="evenodd" d="M204 117.5H196V114.5H193V112.5H189V99.5H211V112.5H207V114.5H204V117.5Z" fill="white"/>
<path fill-rule="evenodd" clip-rule="evenodd" d="M234 117.5H226V114.5H223V112.5H219V99.5H241V112.5H237V114.5H234V117.5Z" fill="white"/>
<path fill-rule="evenodd" clip-rule="evenodd" d="M264 117.5H256V114.5H253V112.5H249V99.5H271V112.5H267V114.5H264V117.5Z" fill="white"/>
<path fill-rule="evenodd" clip-rule="evenodd" d="M294 117.5H286V114.5H283V112.5H279V99.5H301V112.5H297V114.5H294V117.5Z" fill="white"/>
<path d="M60.5 0H577L536 59.5H0L60.5 0Z" fill="#C4C4C4"/>
<path d="M537 60.5L577.5 0.5V72L537 133.5V60.5Z" fill="#C4C4C4"/>
</svg>
