<svg width="24" height="24" viewBox="0 0 24 24" fill="none" xmlns="http://www.w3.org/2000/svg">
<path d="M17 8C17 11.3137 14.7614 14 12 14C9.23858 14 7 11.3137 7 8C7 4.68629 9.23858 2 12 2C14.7614 2 17 4.68629 17 8Z" fill="white"/>
<path d="M17 14.9C19.2 15.8 20.9 17.3 21.8 19.1C22.5 20.5 21.4 22 19.9 22H4.09997C2.59997 22 1.49997 20.5 2.19997 19.2C3.09997 17.4 4.79997 15.9 6.99997 15C7.59997 14.7 8.29997 14.8 8.79997 15C9.79997 15.6 10.8 15.9 12 15.9C13.2 15.9 14.2 15.6 15.2 15C15.7 14.7 16.4 14.7 17 14.9Z" fill="white"/>
</svg>
